<?xml version="1.0" encoding="UTF-8"?><svg id="a" xmlns="http://www.w3.org/2000/svg" viewBox="0 0 335.23 161.2"><defs><style>.b{letter-spacing:-.02em;}.c{fill:#1d1d1b;font-family:AlumniSans-SemiBold, Alumni Sans;font-size:79.37px;}</style></defs><path d="M37.98,153.82s1.2,.87,1.08,.61c0,0,2.9,1.1,5-1,1.8-1.8,2-3.3,2-16.6,0-8,.3-14.4,.8-14.2,.4,.2,2.4,1.2,4.5,2.3l3.9,1.9,3.8-2.2c2.2-1.2,4.1-2.2,4.3-2.2s.2,5.6-.1,12.5c-.4,11.5,.7,19.4,2.6,19.6,.4,0,1.5,.2,2.4,.4,2.1,.4,15.9-8.9,23.2-15.7,1.1-1,2.3-1.8,2.7-1.8s1.6-1.4,2.7-3.2c1.8-2.9,1.9-3.5,.6-5.9-.7-1.5-1.9-3.3-2.7-4.1-2.1-2.2-4-9.4-3.3-12.4,.4-1.5,2.3-4.2,4.2-6s3.8-4.4,4.4-5.9c.5-1.4,1-10.7,1-20.5v-17.8l-3.6-5.3c-5.1-7.6-14.1-15.9-20.6-19.2-3.1-1.5-6.3-2.7-7.1-2.7s-2.1-.8-2.9-1.8c-1.4-1.5-1.4-2.9-.3-12.2,.8-5.8,1.1-11.4,.9-12.6-.9-3.6-5.5-5.4-13.6-5.3-6.5,0-7.6,.3-9.7,2.6l-2.5,2.6,1.3,11.6c.7,6.4,1.4,12,1.4,12.5,.1,.4-2.1,1.6-4.9,2.5-7.6,2.6-13.8,6.6-20.2,13.1-9.8,10-10.6,12.1-10.9,29-.2,19.8,.6,24.3,5.6,29.4,5.7,5.9,5.8,10.8,.7,18.5-1.9,2.8-3.3,5.8-3.2,6.7,.3,2.3,6.91,8.43,8.2,9.53l1.02,.92,5.38,4.05M64.06,7.23c0,.4-.7,6.2-1.5,12.7-.8,6.6-1.5,12.3-1.5,12.7s-2.8,.7-6.2,.5l-6.2-.2-1.2-10.9c-.7-6-1.5-11.9-1.8-13.2q-.6-2.4,8.9-2.4c5.2,0,9.5,.4,9.5,.8Zm5.8,31.4c8.6,3.1,17.5,9.9,22.8,17.4l4.7,6.6v15.4c-.1,19.9-.7,23-4.4,24.9-8,4.2-7.9,16.5,.2,25l2.9,3.1-13.6,10.4c-7.4,5.8-14,10.7-14.6,10.9-.8,.3-.9-1.9-.5-7.4,.4-4.3,.7-15.1,.7-24v-16.2l5.8-2.5c3.1-1.4,8.4-3.6,11.6-4.9,5.3-2.1,5.7-2.4,3.2-2.7l-2.9-.4,.7-7c.5-5.5,.4-6.9-.6-6.5-.7,.3-6.7,2.8-13.3,5.5l-12,5,.2,9.2c.1,5.1,.7,10.6,1.3,12.3,1,2.9,.8,3.4-3,7.1l-4,4.1-4.1-4.1c-4-4-4-4.2-3-8,.6-2.1,1.1-7.7,1.1-12.4v-8.5l-13-5.1-13-5.1v6.8c0,6.2-.2,6.8-2.2,7.2-2.2,.3-2.2,.4-.3,1.2,1.1,.4,6.4,2.6,11.7,4.8l9.7,3.9,.3,23.9c.2,18,0,23.9-.9,23.9-.6,0-1.4-.4-1.8-1-.3-.5-6.2-5.2-13.1-10.5l-12.5-9.6,2.7-3.2c3.6-4.2,6.4-10.5,6.4-14.3s-3.6-9.4-7-11.1c-3-1.5-3.7-6.2-3.9-26.2q-.1-13.4,3-18.3c11.8-18.4,35.2-26.8,54.7-19.6Zm-31,52.9c6.1,2.8,6.2,2.9,6.2,6.8,0,3.4-.3,3.9-1.7,3.4-1-.4-2.1-1-2.4-1.5-.3-.4-3-1.7-6-2.7-5.7-2-8.8-5.4-7.6-8.5,.8-2,2.2-1.7,11.5,2.5Zm43,0c-.2,1.8-2.2,3.3-8.7,6.6-4.7,2.4-8.6,4.3-8.8,4.3-.9,0-.1-5.9,1-7.5,1.7-2.2,14.9-7.6,16-6.5,.5,.4,.7,1.8,.5,3.1Z"/><text class="c" transform="translate(111.1 86.07)"><tspan x="0" y="0">ACHILLES </tspan><tspan class="b" x="0" y="56.69">T</tspan><tspan x="22.54" y="56.69">ACTIC</tspan></text></svg>