<?xml version="1.0" encoding="utf-8"?>
<!-- Generator: Adobe Illustrator 26.1.0, SVG Export Plug-In . SVG Version: 6.00 Build 0)  -->
<svg version="1.1" id="Layer_1" xmlns="http://www.w3.org/2000/svg" xmlns:xlink="http://www.w3.org/1999/xlink" x="0px" y="0px"
	 viewBox="0 0 180 75" style="enable-background:new 0 0 180 75;" xml:space="preserve">
<style type="text/css">
	.st0{fill:none;}
	.st1{fill:#1D1D1B;}
	.st2{font-family:'AlumniSans-SemiBold';}
	.st3{font-size:32.2528px;}
</style>
<path d="M38.5,64.8c0,0,0.5,0.3,0.4,0.3c0,0,1.2,0.4,2-0.4c0.7-0.7,0.8-1.3,0.8-6.8c0-3.2,0.1-5.8,0.3-5.8c0.2,0.1,1,0.5,1.8,0.9
	l1.6,0.8L47,53c0.9-0.5,1.6-0.9,1.8-0.9c0.1,0,0.1,2.3-0.1,5.1c-0.2,4.7,0.3,7.9,1,8c0.2,0,0.6,0.1,1,0.2c0.9,0.2,6.5-3.6,9.5-6.4
	c0.4-0.4,0.9-0.7,1.1-0.7c0.2,0,0.7-0.5,1.1-1.3c0.7-1.2,0.8-1.4,0.2-2.4c-0.3-0.6-0.8-1.3-1.1-1.6c-0.9-0.9-1.6-3.8-1.3-5.1
	c0.2-0.6,0.9-1.7,1.7-2.4c0.8-0.7,1.5-1.8,1.8-2.4c0.2-0.5,0.4-4.3,0.4-8.4v-7.3l-1.5-2.1c-2.1-3.1-5.7-6.5-8.4-7.8
	c-1.3-0.6-2.6-1.1-2.9-1.1c-0.3,0-0.9-0.3-1.2-0.7c-0.5-0.6-0.5-1.2-0.1-4.9c0.3-2.4,0.4-4.6,0.4-5.1C50.2,4,48.3,3.3,45,3.3
	c-2.6,0-3.1,0.1-4,1l-1,1l0.5,4.7c0.3,2.6,0.5,4.9,0.5,5.1c0.1,0.2-0.9,0.7-2,1c-3.1,1-5.6,2.7-8.2,5.3c-4,4.1-4.3,4.9-4.5,11.8
	c-0.1,8,0.2,9.9,2.3,11.9c2.3,2.4,2.4,4.4,0.3,7.5c-0.8,1.2-1.3,2.4-1.3,2.7c0.1,0.9,2.8,3.4,3.4,3.8l0.4,0.4l2.2,1.6 M49.1,5.2
	c0,0.2-0.3,2.5-0.6,5.2c-0.3,2.7-0.6,5-0.6,5.2c0,0.2-1.2,0.3-2.5,0.2l-2.5-0.1l-0.5-4.5c-0.3-2.4-0.6-4.8-0.7-5.4
	c-0.2-1-0.2-1,3.6-1C47.3,4.9,49.1,5,49.1,5.2z M51.4,18c3.5,1.3,7.1,4,9.3,7.1l1.9,2.7V34c-0.1,8.1-0.3,9.3-1.8,10.1
	c-3.2,1.7-3.2,6.7,0.1,10.2l1.2,1.3l-5.6,4.2c-3,2.4-5.7,4.3-5.9,4.5c-0.3,0.1-0.4-0.8-0.2-3c0.2-1.8,0.3-6.2,0.3-9.7v-6.6l2.4-1
	c1.3-0.5,3.4-1.5,4.7-2c2.1-0.9,2.3-1,1.3-1.1l-1.2-0.2l0.3-2.9c0.2-2.3,0.2-2.8-0.2-2.6c-0.3,0.1-2.7,1.2-5.4,2.3l-4.9,2l0.1,3.7
	c0.1,2.1,0.3,4.3,0.5,5c0.4,1.2,0.3,1.4-1.2,2.9l-1.6,1.6l-1.6-1.6c-1.6-1.6-1.6-1.7-1.2-3.2c0.2-0.9,0.4-3.1,0.4-5.1v-3.5l-5.3-2.1
	l-5.3-2.1v2.7c0,2.5-0.1,2.7-0.9,2.9c-0.9,0.1-0.9,0.2-0.1,0.5c0.4,0.2,2.6,1,4.7,1.9l4,1.6l0.1,9.7c0.1,7.3,0,9.7-0.4,9.7
	c-0.2,0-0.5-0.2-0.7-0.4c-0.1-0.2-2.5-2.1-5.3-4.3l-5.1-3.9l1.1-1.3c1.5-1.7,2.6-4.3,2.6-5.8c0-1.5-1.5-3.8-2.9-4.5
	c-1.2-0.6-1.5-2.5-1.6-10.7c-0.1-5.4-0.1-5.4,1.2-7.4C34,18.5,43.5,15,51.4,18z M38.8,39.5c2.5,1.2,2.5,1.2,2.5,2.7
	c0,1.4-0.1,1.6-0.7,1.4c-0.4-0.2-0.9-0.4-1-0.6c-0.1-0.2-1.2-0.7-2.4-1.1c-2.3-0.8-3.6-2.2-3.1-3.5C34.5,37.6,35,37.8,38.8,39.5z
	 M56.3,39.5c-0.1,0.7-0.9,1.3-3.5,2.7c-1.9,1-3.5,1.8-3.6,1.8c-0.4,0-0.1-2.4,0.4-3c0.7-0.9,6-3.1,6.5-2.6
	C56.3,38.4,56.4,39,56.3,39.5z"/>
<rect x="68.2" y="16.9" class="st0" width="91.9" height="50.8"/>
<text transform="matrix(1 0 0 1 68.1792 37.2507)" class="st1 st2 st3">ACHILLES </text>
<text transform="matrix(1 0 0 1 68.1792 60.283)" class="st1 st2 st3">TACTIC</text>
</svg>
