<?xml version="1.0" encoding="utf-8"?>
<!-- Generator: Adobe Illustrator 26.1.0, SVG Export Plug-In . SVG Version: 6.00 Build 0)  -->
<svg version="1.1" id="Layer_1" xmlns="http://www.w3.org/2000/svg" xmlns:xlink="http://www.w3.org/1999/xlink" x="0px" y="0px"
	 viewBox="0 0 312 130.3" style="enable-background:new 0 0 312 130.3;" xml:space="preserve">
<style type="text/css">
	.st0{fill:none;}
	.st1{fill:#1D1D1B;}
	.st2{font-family:'AlumniSans-SemiBold';}
	.st3{font-size:58.675px;}
</style>
<path d="M58.9,118.6c0,0,0.9,0.6,0.8,0.5c0,0,2.1,0.8,3.7-0.7c1.3-1.3,1.5-2.4,1.5-12.3c0-5.9,0.2-10.6,0.6-10.5
	c0.3,0.1,1.8,0.9,3.3,1.7l2.9,1.4l2.8-1.6c1.6-0.9,3-1.6,3.2-1.6c0.1,0,0.1,4.1-0.1,9.2c-0.3,8.5,0.5,14.3,1.9,14.5
	c0.3,0,1.1,0.1,1.8,0.3c1.6,0.3,11.8-6.6,17.2-11.6c0.8-0.7,1.7-1.3,2-1.3s1.2-1,2-2.4c1.3-2.1,1.4-2.6,0.4-4.4
	c-0.5-1.1-1.4-2.4-2-3c-1.6-1.6-3-6.9-2.4-9.2c0.3-1.1,1.7-3.1,3.1-4.4c1.4-1.3,2.8-3.3,3.3-4.4c0.4-1,0.7-7.9,0.7-15.2V50.4
	l-2.7-3.9c-3.8-5.6-10.4-11.8-15.2-14.2c-2.3-1.1-4.7-2-5.2-2c-0.6,0-1.6-0.6-2.1-1.3c-1-1.1-1-2.1-0.2-9c0.6-4.3,0.8-8.4,0.7-9.3
	c-0.7-2.7-4.1-4-10.1-3.9c-4.8,0-5.6,0.2-7.2,1.9l-1.8,1.9l1,8.6c0.5,4.7,1,8.9,1,9.2c0.1,0.3-1.6,1.2-3.6,1.8
	c-5.6,1.9-10.2,4.9-14.9,9.7c-7.2,7.4-7.8,8.9-8.1,21.4c-0.1,14.6,0.4,18,4.1,21.7c4.2,4.4,4.3,8,0.5,13.7c-1.4,2.1-2.4,4.3-2.4,5
	c0.2,1.7,5.1,6.2,6.1,7l0.8,0.7l4,3 M78.2,10.2c0,0.3-0.5,4.6-1.1,9.4C76.5,24.5,76,28.7,76,29c0,0.3-2.1,0.5-4.6,0.4l-4.6-0.1
	l-0.9-8.1c-0.5-4.4-1.1-8.8-1.3-9.8c-0.4-1.8-0.4-1.8,6.6-1.8C75,9.6,78.2,9.9,78.2,10.2z M82.5,33.4c6.4,2.3,12.9,7.3,16.9,12.9
	l3.5,4.9v11.4c-0.1,14.7-0.5,17-3.3,18.4c-5.9,3.1-5.8,12.2,0.1,18.5l2.1,2.3l-10.1,7.7c-5.5,4.3-10.3,7.9-10.8,8.1
	c-0.6,0.2-0.7-1.4-0.4-5.5c0.3-3.2,0.5-11.2,0.5-17.7v-12l4.3-1.8c2.3-1,6.2-2.7,8.6-3.6c3.9-1.6,4.2-1.8,2.4-2l-2.1-0.3l0.5-5.2
	c0.4-4.1,0.3-5.1-0.4-4.8c-0.5,0.2-5,2.1-9.8,4.1l-8.9,3.7l0.1,6.8c0.1,3.8,0.5,7.8,1,9.1c0.7,2.1,0.6,2.5-2.2,5.2l-3,3l-3-3
	c-3-3-3-3.1-2.2-5.9c0.4-1.6,0.8-5.7,0.8-9.2v-6.3l-9.6-3.8l-9.6-3.8v5c0,4.6-0.1,5-1.6,5.3c-1.6,0.2-1.6,0.3-0.2,0.9
	c0.8,0.3,4.7,1.9,8.6,3.5l7.2,2.9l0.2,17.7c0.1,13.3,0,17.7-0.7,17.7c-0.4,0-1-0.3-1.3-0.7c-0.2-0.4-4.6-3.8-9.7-7.8l-9.2-7.1l2-2.4
	c2.7-3.1,4.7-7.8,4.7-10.6c0-2.7-2.7-6.9-5.2-8.2c-2.2-1.1-2.7-4.6-2.9-19.4c-0.1-9.9-0.1-9.9,2.2-13.5
	C50.8,34.3,68.1,28.1,82.5,33.4z M59.6,72.5c4.5,2.1,4.6,2.1,4.6,5c0,2.5-0.2,2.9-1.3,2.5c-0.7-0.3-1.6-0.7-1.8-1.1
	c-0.2-0.3-2.2-1.3-4.4-2c-4.2-1.5-6.5-4-5.6-6.3C51.7,69.2,52.7,69.4,59.6,72.5z M91.4,72.5c-0.1,1.3-1.6,2.4-6.4,4.9
	c-3.5,1.8-6.4,3.2-6.5,3.2c-0.7,0-0.1-4.4,0.7-5.5c1.3-1.6,11-5.6,11.8-4.8C91.4,70.5,91.5,71.6,91.4,72.5z"/>
<rect x="113" y="31.5" class="st0" width="167.1" height="92.5"/>
<text transform="matrix(1 0 0 1 112.9714 68.4877)"><tspan x="0" y="0" class="st1 st2 st3">ACHILLES </tspan><tspan x="0" y="41.9" class="st1 st2 st3">TACTIC</tspan></text>
</svg>
